# xmcd
#
# Track frame offsets: 
#        150
#        18650
#        28000
#        44547
#        61672
#        78687
#        91075
#        109172
#        122132
#        137182
#
# Disc length: 2070 seconds
#
# Revision: 3
# Processed by: cddbd v1.5.2PL0 Copyright (c) Steve Scherf et al.
# Submitted via: ExactAudioCopy v0.99pb4
#
DISCID=8408140a
DTITLE=George Strait - George Strait
DYEAR=2000
DGENRE=Country
TTITLE0=If You Can Do Anything Else
TTITLE1=Don't Make Me Come Over There And Love You
TTITLE2=Looking Out My Window Through The Pain
TTITLE3=Go On
TTITLE4=If It's Gonna Rain
TTITLE5=Home Improvement
TTITLE6=The Night's Just Right For Love
TTITLE7=You're Stronger Than Me
TTITLE8=Which Side Of The Glass
TTITLE9=She Took The Wind From His Sails
EXTD=
EXTT0=
EXTT1=
EXTT2=
EXTT3=
EXTT4=
EXTT5=
EXTT6=
EXTT7=
EXTT8=
EXTT9=
PLAYORDER=
